<svg width="19" height="19" viewBox="0 0 19 19" fill="none" xmlns="http://www.w3.org/2000/svg">
<path d="M12.2329 9.80365C12.0594 9.63014 12.0594 9.36986 12.2329 9.19635L18.7397 2.6895C18.9132 2.51598 19 2.25571 19 2.08219C19 1.90868 18.9132 1.6484 18.7397 1.47489L17.5251 0.260274C17.3516 0.086758 17.0913 0 16.9178 0C16.6575 0 16.484 0.086758 16.3105 0.260274L9.80365 6.76712C9.63014 6.94064 9.36986 6.94064 9.19635 6.76712L2.6895 0.260274C2.51598 0.086758 2.25571 0 2.08219 0C1.90868 0 1.6484 0.086758 1.47489 0.260274L0.260274 1.47489C0.086758 1.6484 0 1.90868 0 2.08219C0 2.25571 0.086758 2.51598 0.260274 2.6895L6.76712 9.19635C6.94064 9.36986 6.94064 9.63014 6.76712 9.80365L0.260274 16.3105C0.086758 16.484 0 16.7443 0 16.9178C0 17.0913 0.086758 17.3516 0.260274 17.5251L1.47489 18.7397C1.6484 18.9132 1.90868 19 2.08219 19C2.25571 19 2.51598 18.9132 2.6895 18.7397L9.19635 12.2329C9.36986 12.0594 9.63014 12.0594 9.80365 12.2329L16.3105 18.7397C16.484 18.9132 16.7443 19 16.9178 19C17.0913 19 17.3516 18.9132 17.5251 18.7397L18.7397 17.5251C18.9132 17.3516 19 17.0913 19 16.9178C19 16.7443 18.9132 16.484 18.7397 16.3105L12.2329 9.80365Z" fill="#8E9AAC"/>
</svg>
