<svg width="16" height="16" viewBox="0 0 16 16" fill="none" xmlns="http://www.w3.org/2000/svg">
<g clip-path="url(#clip0_11_616)">
<path d="M15.8572 11.5785C15.8142 11.5065 15.5482 10.9284 14.2681 9.74034C12.928 8.49625 13.1081 8.69827 14.7222 6.54711C15.7052 5.23701 16.0983 4.43695 15.9753 4.09492C15.8582 3.7689 15.1352 3.85491 15.1352 3.85491L12.731 3.86891C12.731 3.86891 12.553 3.84491 12.42 3.92391C12.291 4.00192 12.208 4.18193 12.208 4.18193C12.208 4.18193 11.827 5.19601 11.3189 6.05807C10.2478 7.87721 9.81881 7.97321 9.6438 7.8602C9.23677 7.59718 9.33878 6.80213 9.33878 6.23808C9.33878 4.47495 9.6058 3.7399 8.81774 3.54988C8.55572 3.48688 8.36371 3.44488 7.69466 3.43788C6.8366 3.42888 6.10954 3.44088 5.69851 3.64189C5.42449 3.7759 5.21348 4.07492 5.34249 4.09192C5.5015 4.11293 5.86153 4.18893 6.05254 4.44895C6.29956 4.78398 6.29056 5.53803 6.29056 5.53803C6.29056 5.53803 6.43257 7.61319 5.95953 7.87121C5.63451 8.04822 5.18948 7.68719 4.23441 6.03607C3.74537 5.19101 3.37535 4.25594 3.37535 4.25594C3.37535 4.25594 3.30434 4.08192 3.17733 3.98892C3.02332 3.87591 2.8073 3.83991 2.8073 3.83991L0.521139 3.85391C0.521139 3.85391 0.178114 3.86391 0.052105 4.01292C-0.0599031 4.14593 0.0431043 4.41995 0.0431043 4.41995C0.0431043 4.41995 1.83323 8.60726 3.85938 10.7184C5.71851 12.6536 7.82867 12.5266 7.82867 12.5266H8.78474C8.78474 12.5266 9.07376 12.4945 9.22077 12.3355C9.35678 12.1895 9.35178 11.9155 9.35178 11.9155C9.35178 11.9155 9.33278 10.6324 9.92882 10.4434C10.5159 10.2574 11.2699 11.6835 12.069 12.2325C12.673 12.6476 13.1321 12.5566 13.1321 12.5566L15.2692 12.5266C15.2692 12.5266 16.3873 12.4575 15.8572 11.5785Z" fill="#989898"/>
</g>
<defs>
<clipPath id="clip0_11_616">
<rect width="16" height="16" fill="white"/>
</clipPath>
</defs>
</svg>
